<svg>
<!-- #region LOGO -->
<symbol id="logo" viewBox="0 0 82 48" fill="none" xmlns="http://www.w3.org/2000/svg">
<path d="M41.0001 14.8602L55.5358 5.89013L56.0736 5.87242L51.457 20.4L48.3311 19.9691L51.0405 11.8755L41.1844 17.6921H40.8158L37.7513 15.8835L38.8263 13.5702L41.0001 14.8602Z" fill="white"/>
<path d="M40.9025 0.899853L41.227 0.900308L46.1427 10.8769L43.5027 12.4396L41.0297 7.21687L38.1006 13.1349L38.1026 13.1362L36.9989 15.4394L30.9595 11.8755L33.6691 19.9691L30.5429 20.4L25.9265 5.87241L26.4642 5.89012L35.5161 11.5261L40.9025 0.899853Z" fill="white"/>
<path d="M12.3727 29.9376L18.1248 22.68H22.8349V37.8H18.4286V28.1448L12.3727 35.532H12.1556L6.09969 28.1448V37.8H1.82363V22.68H6.66404L12.3727 29.9376Z" fill="white"/>
<path d="M29.9147 22.68V37.8H25.4867V22.68H29.9147Z" fill="white"/>
<path fill-rule="evenodd" clip-rule="evenodd" d="M46.5734 37.8H51.2836L43.4261 22.68H38.5857L30.7281 37.8H35.3732L36.8058 34.9056H45.1408L46.5734 37.8ZM38.3252 31.7736L40.9733 26.4168L43.5997 31.7736H38.3252Z" fill="white"/>
<path d="M62.6099 29.9376L68.362 22.68H73.0722V37.8H68.6659V28.1448L62.6099 35.532H62.3929L56.3369 28.1448V37.8H52.0609V22.68H56.9013L62.6099 29.9376Z" fill="white"/>
<path d="M80.152 37.8V22.68H75.724V37.8H80.152Z" fill="white"/>
<path d="M2.43825 43.47C2.43825 44.9754 3.48857 45.7554 5.07973 45.7554C6.036 45.7554 6.82766 45.4434 7.25093 44.7102L7.87798 45.0222C7.36066 45.8412 6.4044 46.3638 5.06406 46.3638C3.01828 46.3638 1.76416 45.2406 1.76416 43.47C1.76416 41.6994 3.01828 40.5762 5.08757 40.5762C6.4044 40.5762 7.36066 41.1066 7.87798 41.9178L7.25093 42.2298C6.81982 41.5044 6.036 41.1846 5.07973 41.1846C3.48857 41.1846 2.43825 41.9646 2.43825 43.47Z" fill="white"/>
<path fill-rule="evenodd" clip-rule="evenodd" d="M16.1832 43.47C16.1832 45.2484 14.9291 46.3638 12.8441 46.3638C10.7591 46.3638 9.50501 45.2484 9.50501 43.47C9.50501 41.6916 10.7591 40.5762 12.8441 40.5762C14.9291 40.5762 16.1832 41.6916 16.1832 43.47ZM10.1791 43.47C10.1791 44.9364 11.2294 45.7554 12.8441 45.7554C14.4588 45.7554 15.5091 44.9364 15.5091 43.47C15.5091 42.0036 14.4588 41.1846 12.8441 41.1846C11.2294 41.1846 10.1791 42.0036 10.1791 43.47Z" fill="white"/>
<path d="M23.6308 40.74V45.2406L19.1551 40.74H18.4419V46.2H19.0846V41.5746L23.6935 46.2H24.2735V40.74H23.6308Z" fill="white"/>
<path fill-rule="evenodd" clip-rule="evenodd" d="M26.9328 40.74H29.5978C31.6044 40.74 32.8899 41.793 32.8899 43.47C32.8899 45.147 31.6044 46.2 29.5978 46.2H26.9328V40.74ZM27.5913 45.5916H29.5508C31.1106 45.5916 32.2158 44.8662 32.2158 43.47C32.2158 42.0738 31.1106 41.3484 29.5508 41.3484H27.5913V45.5916Z" fill="white"/>
<path fill-rule="evenodd" clip-rule="evenodd" d="M38.0798 46.3638C40.1647 46.3638 41.4189 45.2484 41.4189 43.47C41.4189 41.6916 40.1647 40.5762 38.0798 40.5762C35.9948 40.5762 34.7407 41.6916 34.7407 43.47C34.7407 45.2484 35.9948 46.3638 38.0798 46.3638ZM38.0798 45.7554C36.4651 45.7554 35.4148 44.9364 35.4148 43.47C35.4148 42.0036 36.4651 41.1846 38.0798 41.1846C39.6945 41.1846 40.7448 42.0036 40.7448 43.47C40.7448 44.9364 39.6945 45.7554 38.0798 45.7554Z" fill="white"/>
<path d="M50.0501 42.885L52.958 46.2H52.1194L49.5171 43.2672L47.6908 44.6868V46.2H47.0323V40.74H47.6908V43.938L51.845 40.74H52.7856L50.0501 42.885Z" fill="white"/>
<path d="M55.4393 40.74H54.7808V46.2H55.4393V40.74Z" fill="white"/>
<path d="M63.2939 45.2406V40.74H63.9367V46.2H63.3566L58.7478 41.5746V46.2H58.105V40.74H58.8183L63.2939 45.2406Z" fill="white"/>
<path d="M72.6393 43.3608H69.4883V43.9692H71.9809V44.679C71.5733 45.4356 70.6797 45.7554 69.5902 45.7554C67.9128 45.7554 66.8625 44.9832 66.8625 43.47C66.8625 41.9568 67.905 41.1846 69.5432 41.1846C70.5387 41.1846 71.2676 41.4966 71.7614 42.1128L72.3336 41.715C71.7849 41.0754 70.8835 40.5762 69.5432 40.5762C67.4426 40.5762 66.1884 41.6916 66.1884 43.47C66.1884 45.2484 67.4425 46.3638 69.5667 46.3638C71.0873 46.3638 72.1847 45.7242 72.6393 44.874V43.3608Z" fill="white"/>
<path d="M75.2019 42.1674C75.2019 42.846 76.2365 42.9864 77.5298 43.0878C79.1994 43.2204 80.3594 43.5402 80.3594 44.6166C80.3594 45.6228 79.3326 46.3638 77.5455 46.3638C76.3463 46.3638 75.194 45.9894 74.3397 45.2406L74.8021 44.7492C75.6016 45.4512 76.4874 45.7554 77.5847 45.7554C78.9094 45.7554 79.6854 45.342 79.6854 44.6634C79.6854 44.0004 78.878 43.8366 77.3966 43.7118C75.9308 43.587 74.5278 43.2672 74.5278 42.1908C74.5278 41.1612 75.8289 40.5762 77.2947 40.5762C78.4861 40.5762 79.4659 40.9896 80.1008 41.5512L79.5835 41.988C79.0505 41.4654 78.2431 41.1924 77.326 41.1846C76.3463 41.1768 75.2019 41.4498 75.2019 42.1674Z" fill="white"/>
</symbol>

<!-- #endregion-->

<!-- #region BURGER-MUNU -->
<symbol id="burger-menu" viewBox="0 0 24 24" fill="none" xmlns="http://www.w3.org/2000/svg">
<g clip-path="url(#clip0_16033_297)">
<path d="M3 17C3 17.5523 3.44772 18 4 18H20C20.5523 18 21 17.5523 21 17C21 16.4477 20.5523 16 20 16H4C3.44772 16 3 16.4477 3 17ZM3 12C3 12.5523 3.44772 13 4 13H20C20.5523 13 21 12.5523 21 12C21 11.4477 20.5523 11 20 11H4C3.44772 11 3 11.4477 3 12ZM4 6C3.44772 6 3 6.44772 3 7C3 7.55228 3.44772 8 4 8H20C20.5523 8 21 7.55228 21 7C21 6.44772 20.5523 6 20 6H4Z" fill="white"/>
</g>
<defs>
<clipPath id="clip0_16033_297">
<rect width="24" height="24" fill="white"/>
</clipPath>
</defs>
</symbol>
<!-- #endregion-->

<!-- #region BURGER-MUNU-HOVER -->
<symbol id="burger-hover" viewBox="0 0 32 32" fill="none" xmlns="http://www.w3.org/2000/svg">
<g clip-path="url(#clip0_16033_441)">
<path d="M4 22.6667C4 23.403 4.59695 24 5.33333 24H14.6667C15.403 24 16 23.403 16 22.6667C16 21.9303 15.403 21.3333 14.6667 21.3333H5.33333C4.59695 21.3333 4 21.9303 4 22.6667ZM4 16C4 16.7364 4.59695 17.3333 5.33333 17.3333H26.6667C27.403 17.3333 28 16.7364 28 16C28 15.2636 27.403 14.6667 26.6667 14.6667H5.33333C4.59695 14.6667 4 15.2636 4 16ZM5.33334 8C4.59696 8 4 8.59695 4 9.33333C4 10.0697 4.59695 10.6667 5.33333 10.6667H20C20.7364 10.6667 21.3333 10.0697 21.3333 9.33333C21.3333 8.59695 20.7364 8 20 8H5.33334Z" fill="white"/>
</g>
<defs>
<clipPath id="clip0_16033_441">
<rect width="32" height="32" fill="white"/>
</clipPath>
</defs>
</symbol>

<!-- #endregion-->

<!-- #region NUMBER -->
<symbol id="number" viewBox="0 0 128 10" fill="none" xmlns="http://www.w3.org/2000/svg">
<path d="M4.06641 4.22461H6.18164V5.75391H4.06641V8.14453H2.45508V5.75391H0.333984V4.22461H2.45508V1.93359H4.06641V4.22461ZM13.2441 9H11.5508V2.47266L9.5293 3.09961V1.72266L13.0625 0.457031H13.2441V9ZM28.8574 9H23.0098V7.83984L25.7695 4.89844C26.1484 4.48438 26.4277 4.12305 26.6074 3.81445C26.791 3.50586 26.8828 3.21289 26.8828 2.93555C26.8828 2.55664 26.7871 2.25977 26.5957 2.04492C26.4043 1.82617 26.1309 1.7168 25.7754 1.7168C25.3926 1.7168 25.0898 1.84961 24.8672 2.11523C24.6484 2.37695 24.5391 2.72266 24.5391 3.15234H22.8398C22.8398 2.63281 22.9629 2.1582 23.209 1.72852C23.459 1.29883 23.8105 0.962891 24.2637 0.720703C24.7168 0.474609 25.2305 0.351562 25.8047 0.351562C26.6836 0.351562 27.3652 0.5625 27.8496 0.984375C28.3379 1.40625 28.582 2.00195 28.582 2.77148C28.582 3.19336 28.4727 3.62305 28.2539 4.06055C28.0352 4.49805 27.6602 5.00781 27.1289 5.58984L25.1895 7.63477H28.8574V9ZM33.623 3.98438H34.5254C34.9551 3.98438 35.2734 3.87695 35.4805 3.66211C35.6875 3.44727 35.791 3.16211 35.791 2.80664C35.791 2.46289 35.6875 2.19531 35.4805 2.00391C35.2773 1.8125 34.9961 1.7168 34.6367 1.7168C34.3125 1.7168 34.041 1.80664 33.8223 1.98633C33.6035 2.16211 33.4941 2.39258 33.4941 2.67773H31.8008C31.8008 2.23242 31.9199 1.83398 32.1582 1.48242C32.4004 1.12695 32.7363 0.849609 33.166 0.650391C33.5996 0.451172 34.0762 0.351562 34.5957 0.351562C35.498 0.351562 36.2051 0.568359 36.7168 1.00195C37.2285 1.43164 37.4844 2.02539 37.4844 2.7832C37.4844 3.17383 37.3652 3.5332 37.127 3.86133C36.8887 4.18945 36.5762 4.44141 36.1895 4.61719C36.6699 4.78906 37.0273 5.04688 37.2617 5.39062C37.5 5.73438 37.6191 6.14062 37.6191 6.60938C37.6191 7.36719 37.3418 7.97461 36.7871 8.43164C36.2363 8.88867 35.5059 9.11719 34.5957 9.11719C33.7441 9.11719 33.0469 8.89258 32.5039 8.44336C31.9648 7.99414 31.6953 7.40039 31.6953 6.66211H33.3887C33.3887 6.98242 33.5078 7.24414 33.7461 7.44727C33.9883 7.65039 34.2852 7.75195 34.6367 7.75195C35.0391 7.75195 35.3535 7.64648 35.5801 7.43555C35.8105 7.2207 35.9258 6.9375 35.9258 6.58594C35.9258 5.73438 35.457 5.30859 34.5195 5.30859H33.623V3.98438ZM45.8008 5.78906H46.7676V7.1543H45.8008V9H44.1074V7.1543H40.6094L40.5332 6.08789L44.0898 0.46875H45.8008V5.78906ZM42.2207 5.78906H44.1074V2.77734L43.9961 2.9707L42.2207 5.78906ZM54.9219 4.80469L55.4141 0.46875H60.1953V1.88086H56.8027L56.5918 3.71484C56.9941 3.5 57.4219 3.39258 57.875 3.39258C58.6875 3.39258 59.3242 3.64453 59.7852 4.14844C60.2461 4.65234 60.4766 5.35742 60.4766 6.26367C60.4766 6.81445 60.3594 7.30859 60.125 7.74609C59.8945 8.17969 59.5625 8.51758 59.1289 8.75977C58.6953 8.99805 58.1836 9.11719 57.5938 9.11719C57.0781 9.11719 56.5996 9.01367 56.1582 8.80664C55.7168 8.5957 55.3672 8.30078 55.1094 7.92188C54.8555 7.54297 54.7207 7.11133 54.7051 6.62695H56.3809C56.416 6.98242 56.5391 7.25977 56.75 7.45898C56.9648 7.6543 57.2441 7.75195 57.5879 7.75195C57.9707 7.75195 58.2656 7.61523 58.4727 7.3418C58.6797 7.06445 58.7832 6.67383 58.7832 6.16992C58.7832 5.68555 58.6641 5.31445 58.4258 5.05664C58.1875 4.79883 57.8496 4.66992 57.4121 4.66992C57.0098 4.66992 56.6836 4.77539 56.4336 4.98633L56.2695 5.13867L54.9219 4.80469ZM63.8125 4.80469L64.3047 0.46875H69.0859V1.88086H65.6934L65.4824 3.71484C65.8848 3.5 66.3125 3.39258 66.7656 3.39258C67.5781 3.39258 68.2148 3.64453 68.6758 4.14844C69.1367 4.65234 69.3672 5.35742 69.3672 6.26367C69.3672 6.81445 69.25 7.30859 69.0156 7.74609C68.7852 8.17969 68.4531 8.51758 68.0195 8.75977C67.5859 8.99805 67.0742 9.11719 66.4844 9.11719C65.9688 9.11719 65.4902 9.01367 65.0488 8.80664C64.6074 8.5957 64.2578 8.30078 64 7.92188C63.7461 7.54297 63.6113 7.11133 63.5957 6.62695H65.2715C65.3066 6.98242 65.4297 7.25977 65.6406 7.45898C65.8555 7.6543 66.1348 7.75195 66.4785 7.75195C66.8613 7.75195 67.1562 7.61523 67.3633 7.3418C67.5703 7.06445 67.6738 6.67383 67.6738 6.16992C67.6738 5.68555 67.5547 5.31445 67.3164 5.05664C67.0781 4.79883 66.7402 4.66992 66.3027 4.66992C65.9004 4.66992 65.5742 4.77539 65.3242 4.98633L65.1602 5.13867L63.8125 4.80469ZM72.7031 4.80469L73.1953 0.46875H77.9766V1.88086H74.584L74.373 3.71484C74.7754 3.5 75.2031 3.39258 75.6562 3.39258C76.4688 3.39258 77.1055 3.64453 77.5664 4.14844C78.0273 4.65234 78.2578 5.35742 78.2578 6.26367C78.2578 6.81445 78.1406 7.30859 77.9062 7.74609C77.6758 8.17969 77.3438 8.51758 76.9102 8.75977C76.4766 8.99805 75.9648 9.11719 75.375 9.11719C74.8594 9.11719 74.3809 9.01367 73.9395 8.80664C73.498 8.5957 73.1484 8.30078 72.8906 7.92188C72.6367 7.54297 72.502 7.11133 72.4863 6.62695H74.1621C74.1973 6.98242 74.3203 7.25977 74.5312 7.45898C74.7461 7.6543 75.0254 7.75195 75.3691 7.75195C75.752 7.75195 76.0469 7.61523 76.2539 7.3418C76.4609 7.06445 76.5645 6.67383 76.5645 6.16992C76.5645 5.68555 76.4453 5.31445 76.207 5.05664C75.9688 4.79883 75.6309 4.66992 75.1934 4.66992C74.791 4.66992 74.4648 4.77539 74.2148 4.98633L74.0508 5.13867L72.7031 4.80469ZM84.7051 6.0293H81.4062V4.66406H84.7051V6.0293ZM88.2461 4.80469L88.7383 0.46875H93.5195V1.88086H90.127L89.916 3.71484C90.3184 3.5 90.7461 3.39258 91.1992 3.39258C92.0117 3.39258 92.6484 3.64453 93.1094 4.14844C93.5703 4.65234 93.8008 5.35742 93.8008 6.26367C93.8008 6.81445 93.6836 7.30859 93.4492 7.74609C93.2188 8.17969 92.8867 8.51758 92.4531 8.75977C92.0195 8.99805 91.5078 9.11719 90.918 9.11719C90.4023 9.11719 89.9238 9.01367 89.4824 8.80664C89.041 8.5957 88.6914 8.30078 88.4336 7.92188C88.1797 7.54297 88.0449 7.11133 88.0293 6.62695H89.7051C89.7402 6.98242 89.8633 7.25977 90.0742 7.45898C90.2891 7.6543 90.5684 7.75195 90.9121 7.75195C91.2949 7.75195 91.5898 7.61523 91.7969 7.3418C92.0039 7.06445 92.1074 6.67383 92.1074 6.16992C92.1074 5.68555 91.9883 5.31445 91.75 5.05664C91.5117 4.79883 91.1738 4.66992 90.7363 4.66992C90.334 4.66992 90.0078 4.77539 89.7578 4.98633L89.5938 5.13867L88.2461 4.80469ZM97.1367 4.80469L97.6289 0.46875H102.41V1.88086H99.0176L98.8066 3.71484C99.209 3.5 99.6367 3.39258 100.09 3.39258C100.902 3.39258 101.539 3.64453 102 4.14844C102.461 4.65234 102.691 5.35742 102.691 6.26367C102.691 6.81445 102.574 7.30859 102.34 7.74609C102.109 8.17969 101.777 8.51758 101.344 8.75977C100.91 8.99805 100.398 9.11719 99.8086 9.11719C99.293 9.11719 98.8145 9.01367 98.373 8.80664C97.9316 8.5957 97.582 8.30078 97.3242 7.92188C97.0703 7.54297 96.9355 7.11133 96.9199 6.62695H98.5957C98.6309 6.98242 98.7539 7.25977 98.9648 7.45898C99.1797 7.6543 99.459 7.75195 99.8027 7.75195C100.186 7.75195 100.48 7.61523 100.688 7.3418C100.895 7.06445 100.998 6.67383 100.998 6.16992C100.998 5.68555 100.879 5.31445 100.641 5.05664C100.402 4.79883 100.064 4.66992 99.627 4.66992C99.2246 4.66992 98.8984 4.77539 98.6484 4.98633L98.4844 5.13867L97.1367 4.80469ZM109.139 6.0293H105.84V4.66406H109.139V6.0293ZM112.68 4.80469L113.172 0.46875H117.953V1.88086H114.561L114.35 3.71484C114.752 3.5 115.18 3.39258 115.633 3.39258C116.445 3.39258 117.082 3.64453 117.543 4.14844C118.004 4.65234 118.234 5.35742 118.234 6.26367C118.234 6.81445 118.117 7.30859 117.883 7.74609C117.652 8.17969 117.32 8.51758 116.887 8.75977C116.453 8.99805 115.941 9.11719 115.352 9.11719C114.836 9.11719 114.357 9.01367 113.916 8.80664C113.475 8.5957 113.125 8.30078 112.867 7.92188C112.613 7.54297 112.479 7.11133 112.463 6.62695H114.139C114.174 6.98242 114.297 7.25977 114.508 7.45898C114.723 7.6543 115.002 7.75195 115.346 7.75195C115.729 7.75195 116.023 7.61523 116.23 7.3418C116.438 7.06445 116.541 6.67383 116.541 6.16992C116.541 5.68555 116.422 5.31445 116.184 5.05664C115.945 4.79883 115.607 4.66992 115.17 4.66992C114.768 4.66992 114.441 4.77539 114.191 4.98633L114.027 5.13867L112.68 4.80469ZM121.57 4.80469L122.062 0.46875H126.844V1.88086H123.451L123.24 3.71484C123.643 3.5 124.07 3.39258 124.523 3.39258C125.336 3.39258 125.973 3.64453 126.434 4.14844C126.895 4.65234 127.125 5.35742 127.125 6.26367C127.125 6.81445 127.008 7.30859 126.773 7.74609C126.543 8.17969 126.211 8.51758 125.777 8.75977C125.344 8.99805 124.832 9.11719 124.242 9.11719C123.727 9.11719 123.248 9.01367 122.807 8.80664C122.365 8.5957 122.016 8.30078 121.758 7.92188C121.504 7.54297 121.369 7.11133 121.354 6.62695H123.029C123.064 6.98242 123.188 7.25977 123.398 7.45898C123.613 7.6543 123.893 7.75195 124.236 7.75195C124.619 7.75195 124.914 7.61523 125.121 7.3418C125.328 7.06445 125.432 6.67383 125.432 6.16992C125.432 5.68555 125.312 5.31445 125.074 5.05664C124.836 4.79883 124.498 4.66992 124.061 4.66992C123.658 4.66992 123.332 4.77539 123.082 4.98633L122.918 5.13867L121.57 4.80469Z" fill="white"/>
</symbol>

<!-- #endregion-->

<!-- #region CLOSE -->

<symbol id="close" viewBox="0 0 24 24" fill="none" xmlns="http://www.w3.org/2000/svg">
<path d="M19.1943 6.41714C19.6393 5.97216 19.6393 5.2507 19.1943 4.80571C18.7493 4.36073 18.0278 4.36073 17.5829 4.80571L12 10.3886L6.41714 4.80572C5.97216 4.36073 5.2507 4.36073 4.80571 4.80571C4.36073 5.2507 4.36073 5.97216 4.80571 6.41714L10.3886 12L4.80572 17.5829C4.36073 18.0278 4.36073 18.7493 4.80571 19.1943C5.2507 19.6393 5.97216 19.6393 6.41714 19.1943L12 13.6114L17.5829 19.1943C18.0278 19.6393 18.7493 19.6393 19.1943 19.1943C19.6393 18.7493 19.6393 18.0278 19.1943 17.5829L13.6114 12L19.1943 6.41714Z" fill="white"/>
</symbol>
<!-- #endregion-->

<!-- #region PHONE -->
<symbol id="phone" viewBox="0 0 24 24" fill="none" xmlns="http://www.w3.org/2000/svg">
<g clip-path="url(#clip0_16033_296)">
<path d="M20.01 15.38C18.78 15.38 17.59 15.18 16.48 14.82C16.13 14.7 15.74 14.79 15.47 15.06L13.9 17.03C11.07 15.68 8.42 13.13 7.01 10.2L8.96 8.54C9.23 8.26 9.31 7.87 9.2 7.52C8.83 6.41 8.64 5.22 8.64 3.99C8.64 3.45 8.19 3 7.65 3H4.19C3.65 3 3 3.24 3 3.99C3 13.28 10.73 21 20.01 21C20.72 21 21 20.37 21 19.82V16.37C21 15.83 20.55 15.38 20.01 15.38Z" fill="white"/>
</g>
<defs>
<clipPath id="clip0_16033_296">
<rect width="24" height="24" fill="white"/>
</clipPath>
</defs>
</symbol>


<!-- #endregion-->

</svg>
